<svg xmlns="http://www.w3.org/2000/svg" version="1.1" xmlns:xlink="http://www.w3.org/1999/xlink" width="512" height="512" x="0" y="0" viewBox="0 0 512 512" style="enable-background:new 0 0 512 512" xml:space="preserve" class=""><g><path fill-rule="evenodd" d="M256 16C123.664 16 16 123.664 16 256s107.664 240 240 240 240-107.661 240-240S388.336 16 256 16zm-91.657 353.057h-22.2A23.671 23.671 0 0 1 118.5 345.41V226.752a23.671 23.671 0 0 1 23.644-23.652h22.2a23.672 23.672 0 0 1 23.645 23.648V345.41a23.671 23.671 0 0 1-23.645 23.647zM387.3 312.906c-8.905 29.255-26.161 50.709-47.341 58.854-43.1 16.581-108.184-.13-144.058-16.272a33.008 33.008 0 0 0 1.572-10.078V226.752c0-1.05-.055-2.081-.15-3.106l41.714-46.471c3.251-3.622 5.95-6.5 8.118-8.815 10.9-11.631 11.313-12.681 11.127-28.141-.041-3.379-.091-7.588-.015-12.929.1-7.085 3.035-12.26 8.26-14.572 6.925-3.071 16.309-.723 23.912 5.976 17.059 15.034 20.729 45.765 9.817 82.211a4.739 4.739 0 0 0 4.482 6.1c12.865.172 23.488-.521 32.86-1.126 23.236-1.506 32.982-1.666 40.939 9.651 16.029 22.799 19.551 61.931 8.763 97.376z" fill="#ffffff" opacity="1" data-original="#000000" class=""></path></g></svg>