<svg xmlns="http://www.w3.org/2000/svg" version="1.1" xmlns:xlink="http://www.w3.org/1999/xlink" width="512" height="512" x="0" y="0" viewBox="0 0 24 24" style="enable-background:new 0 0 512 512" xml:space="preserve" class=""><g transform="matrix(-1,0,0,1,24,0)"><path d="M7 20.75c3.225 0 5.75-3.843 5.75-8.75S10.225 3.25 7 3.25 1.25 7.093 1.25 12 3.775 20.75 7 20.75zm0-16c1.972 0 3.678 2.435 4.13 5.6a2 2 0 1 0 0 3.3c-.452 3.165-2.158 5.6-4.13 5.6-2.304 0-4.25-3.32-4.25-7.25S4.696 4.75 7 4.75zM22.75 12c0 4.907-2.525 8.75-5.75 8.75a4.733 4.733 0 0 1-3.67-1.965 11.828 11.828 0 0 0 .747-1.584A3.65 3.65 0 0 0 17 19.25c1.972 0 3.678-2.435 4.13-5.6a2 2 0 1 1 0-3.3c-.452-3.165-2.158-5.6-4.13-5.6a3.65 3.65 0 0 0-2.923 2.049 11.828 11.828 0 0 0-.747-1.584A4.733 4.733 0 0 1 17 3.25c3.225 0 5.75 3.843 5.75 8.75z" fill="#009121" opacity="1" data-original="#000000" class=""></path></g></svg>